<svg width="15" height="8" viewBox="0 0 15 8" fill="none" xmlns="http://www.w3.org/2000/svg">
<path d="M14.2129 5.67578H13.3574V7H12.7246V5.67578H9.96289V5.12891L12.6816 1.25781H13.3574V5.08984H14.2129V5.67578ZM12.7246 5.08984V3.22266C12.7246 3.07943 12.7259 2.95052 12.7285 2.83594C12.7311 2.71875 12.735 2.61068 12.7402 2.51172C12.7454 2.41016 12.7493 2.3138 12.752 2.22266C12.7572 2.13151 12.7611 2.04167 12.7637 1.95312H12.7324C12.6829 2.05729 12.6257 2.16797 12.5605 2.28516C12.498 2.39974 12.4342 2.5026 12.3691 2.59375L10.6074 5.08984H12.7246Z" fill="#594CDA"/>
<path d="M3.49645 0.278289L2.54035 2.34678L0.40119 2.67955C0.017577 2.73892 -0.136161 3.24355 0.142032 3.53257L1.68966 5.14175L1.32362 7.41491C1.25773 7.82579 1.66331 8.13357 2.00299 7.9414L3.91667 6.8681L5.83034 7.9414C6.17003 8.132 6.5756 7.82579 6.50972 7.41491L6.14367 5.14175L7.6913 3.53257C7.9695 3.24355 7.81576 2.73892 7.43214 2.67955L5.29299 2.34678L4.33688 0.278289C4.16558 -0.0904157 3.66922 -0.0951027 3.49645 0.278289Z" fill="#594CDA"/>
</svg>
