<svg width="23" height="8" viewBox="0 0 23 8" fill="none" xmlns="http://www.w3.org/2000/svg">
<path d="M14.4219 5.67578H13.5664V7H12.9336V5.67578H10.1719V5.12891L12.8906 1.25781H13.5664V5.08984H14.4219V5.67578ZM12.9336 5.08984V3.22266C12.9336 3.07943 12.9349 2.95052 12.9375 2.83594C12.9401 2.71875 12.944 2.61068 12.9492 2.51172C12.9544 2.41016 12.9583 2.3138 12.9609 2.22266C12.9661 2.13151 12.9701 2.04167 12.9727 1.95312H12.9414C12.8919 2.05729 12.8346 2.16797 12.7695 2.28516C12.707 2.39974 12.6432 2.5026 12.5781 2.59375L10.8164 5.08984H12.9336ZM15.1641 6.59375C15.1641 6.41146 15.2083 6.28255 15.2969 6.20703C15.3854 6.12891 15.4935 6.08984 15.6211 6.08984C15.7539 6.08984 15.8659 6.12891 15.957 6.20703C16.0482 6.28255 16.0938 6.41146 16.0938 6.59375C16.0938 6.77344 16.0482 6.90495 15.957 6.98828C15.8659 7.06901 15.7539 7.10938 15.6211 7.10938C15.4935 7.10938 15.3854 7.06901 15.2969 6.98828C15.2083 6.90495 15.1641 6.77344 15.1641 6.59375ZM18.8789 3.50781C19.2669 3.50781 19.6042 3.57422 19.8906 3.70703C20.1771 3.83724 20.3984 4.02734 20.5547 4.27734C20.7135 4.52734 20.793 4.83073 20.793 5.1875C20.793 5.57812 20.7083 5.91536 20.5391 6.19922C20.3698 6.48047 20.1263 6.69792 19.8086 6.85156C19.4909 7.0026 19.1107 7.07812 18.668 7.07812C18.3711 7.07812 18.0951 7.05208 17.8398 7C17.5846 6.94792 17.3698 6.86979 17.1953 6.76562V6.14844C17.3854 6.26302 17.6159 6.35417 17.8867 6.42188C18.1576 6.48958 18.4206 6.52344 18.6758 6.52344C18.9648 6.52344 19.2174 6.47786 19.4336 6.38672C19.6523 6.29297 19.8216 6.15234 19.9414 5.96484C20.0638 5.77474 20.125 5.53646 20.125 5.25C20.125 4.86979 20.0078 4.57682 19.7734 4.37109C19.5417 4.16276 19.1745 4.05859 18.6719 4.05859C18.5104 4.05859 18.3333 4.07161 18.1406 4.09766C17.9479 4.1237 17.7891 4.15234 17.6641 4.18359L17.3359 3.96875L17.5547 1.28906H20.3945V1.88281H18.1094L17.9648 3.60547C18.0638 3.58464 18.1914 3.5638 18.3477 3.54297C18.5039 3.51953 18.681 3.50781 18.8789 3.50781Z" fill="#594CDA"/>
<path d="M3.49645 0.278289L2.54035 2.34678L0.40119 2.67955C0.017577 2.73892 -0.136161 3.24355 0.142032 3.53257L1.68966 5.14175L1.32362 7.41491C1.25773 7.82579 1.66331 8.13357 2.00299 7.9414L3.91667 6.8681L5.83034 7.9414C6.17003 8.132 6.5756 7.82579 6.50972 7.41491L6.14367 5.14175L7.6913 3.53257C7.9695 3.24355 7.81576 2.73892 7.43214 2.67955L5.29299 2.34678L4.33688 0.278289C4.16558 -0.0904157 3.66922 -0.0951027 3.49645 0.278289Z" fill="#594CDA"/>
</svg>
