<svg width="14" height="8" viewBox="0 0 14 8" fill="none" xmlns="http://www.w3.org/2000/svg">
<path d="M11.9902 3.50781C12.3783 3.50781 12.7155 3.57422 13.002 3.70703C13.2884 3.83724 13.5098 4.02734 13.666 4.27734C13.8249 4.52734 13.9043 4.83073 13.9043 5.1875C13.9043 5.57812 13.8197 5.91536 13.6504 6.19922C13.4811 6.48047 13.2376 6.69792 12.9199 6.85156C12.6022 7.0026 12.222 7.07812 11.7793 7.07812C11.4824 7.07812 11.2064 7.05208 10.9512 7C10.696 6.94792 10.4811 6.86979 10.3066 6.76562V6.14844C10.4967 6.26302 10.7272 6.35417 10.998 6.42188C11.2689 6.48958 11.5319 6.52344 11.7871 6.52344C12.0762 6.52344 12.3288 6.47786 12.5449 6.38672C12.7637 6.29297 12.9329 6.15234 13.0527 5.96484C13.1751 5.77474 13.2363 5.53646 13.2363 5.25C13.2363 4.86979 13.1191 4.57682 12.8848 4.37109C12.653 4.16276 12.2858 4.05859 11.7832 4.05859C11.6217 4.05859 11.4447 4.07161 11.252 4.09766C11.0592 4.1237 10.9004 4.15234 10.7754 4.18359L10.4473 3.96875L10.666 1.28906H13.5059V1.88281H11.2207L11.0762 3.60547C11.1751 3.58464 11.3027 3.5638 11.459 3.54297C11.6152 3.51953 11.7923 3.50781 11.9902 3.50781Z" fill="#594CDA"/>
<path d="M3.49645 0.278289L2.54035 2.34678L0.40119 2.67955C0.017577 2.73892 -0.136161 3.24355 0.142032 3.53257L1.68966 5.14175L1.32362 7.41491C1.25773 7.82579 1.66331 8.13357 2.00299 7.9414L3.91667 6.8681L5.83034 7.9414C6.17003 8.132 6.5756 7.82579 6.50972 7.41491L6.14367 5.14175L7.6913 3.53257C7.9695 3.24355 7.81576 2.73892 7.43214 2.67955L5.29299 2.34678L4.33688 0.278289C4.16558 -0.0904157 3.66922 -0.0951027 3.49645 0.278289Z" fill="#594CDA"/>
</svg>
